<mxfile host="app.diagrams.net" modified="2023-10-17T10:18:03.224Z" agent="Mozilla/5.0 (Windows NT 10.0; Win64; x64; rv:109.0) Gecko/20100101 Firefox/118.0" etag="CKa8aim0wmEO5yfHdwU8" version="22.0.4" type="github">
  <diagram name="Page-1" id="lAYO_nvEsYcJpDkesMio">
    <mxGraphModel dx="1428" dy="776" grid="0" gridSize="10" guides="1" tooltips="1" connect="1" arrows="1" fold="1" page="1" pageScale="1" pageWidth="1100" pageHeight="850" math="0" shadow="0">
      <root>
        <mxCell id="0" />
        <mxCell id="1" parent="0" />
        <mxCell id="eYl8WgBj91hx6LcociTk-43" value="" style="whiteSpace=wrap;html=1;fillColor=none;rounded=0;" vertex="1" parent="1">
          <mxGeometry x="31" y="27" width="1008" height="594" as="geometry" />
        </mxCell>
        <mxCell id="eYl8WgBj91hx6LcociTk-41" style="edgeStyle=orthogonalEdgeStyle;rounded=0;orthogonalLoop=1;jettySize=auto;html=1;" edge="1" parent="1" source="eYl8WgBj91hx6LcociTk-21">
          <mxGeometry relative="1" as="geometry">
            <mxPoint x="221.47368421052647" y="351" as="targetPoint" />
          </mxGeometry>
        </mxCell>
        <mxCell id="eYl8WgBj91hx6LcociTk-21" value="&lt;b&gt;&lt;font color=&quot;#000000&quot; style=&quot;font-size: 14px;&quot;&gt;Developer&lt;/font&gt;&lt;/b&gt;" style="sketch=0;pointerEvents=1;shadow=0;dashed=0;html=1;strokeColor=#314354;labelPosition=center;verticalLabelPosition=bottom;verticalAlign=top;outlineConnect=0;align=center;shape=mxgraph.office.users.users;fillColor=#647687;fontColor=#ffffff;" vertex="1" parent="1">
          <mxGeometry x="67" y="326" width="46" height="50" as="geometry" />
        </mxCell>
        <mxCell id="eYl8WgBj91hx6LcociTk-22" value="&lt;b&gt;&lt;font style=&quot;font-size: 14px;&quot;&gt;GitHub&lt;/font&gt;&lt;/b&gt;" style="verticalLabelPosition=bottom;html=1;verticalAlign=top;align=center;strokeColor=none;fillColor=#00BEF2;shape=mxgraph.azure.github_code;pointerEvents=1;" vertex="1" parent="1">
          <mxGeometry x="226" y="326" width="50" height="50" as="geometry" />
        </mxCell>
        <mxCell id="eYl8WgBj91hx6LcociTk-35" style="edgeStyle=orthogonalEdgeStyle;rounded=0;orthogonalLoop=1;jettySize=auto;html=1;" edge="1" parent="1">
          <mxGeometry relative="1" as="geometry">
            <mxPoint x="694" y="301" as="targetPoint" />
            <mxPoint x="694" y="258.9968421052631" as="sourcePoint" />
          </mxGeometry>
        </mxCell>
        <mxCell id="eYl8WgBj91hx6LcociTk-40" style="edgeStyle=orthogonalEdgeStyle;rounded=0;orthogonalLoop=1;jettySize=auto;html=1;" edge="1" parent="1" source="eYl8WgBj91hx6LcociTk-24">
          <mxGeometry relative="1" as="geometry">
            <mxPoint x="955.1578947368421" y="235.57894736842115" as="targetPoint" />
          </mxGeometry>
        </mxCell>
        <mxCell id="eYl8WgBj91hx6LcociTk-24" value="&lt;b&gt;&lt;font style=&quot;font-size: 14px;&quot;&gt;ElasticBeanstalk&lt;/font&gt;&lt;/b&gt;" style="sketch=0;points=[[0,0,0],[0.25,0,0],[0.5,0,0],[0.75,0,0],[1,0,0],[0,1,0],[0.25,1,0],[0.5,1,0],[0.75,1,0],[1,1,0],[0,0.25,0],[0,0.5,0],[0,0.75,0],[1,0.25,0],[1,0.5,0],[1,0.75,0]];outlineConnect=0;fontColor=#232F3E;fillColor=#3333FF;strokeColor=#ffffff;dashed=0;verticalLabelPosition=bottom;verticalAlign=top;align=center;html=1;fontSize=12;fontStyle=0;aspect=fixed;shape=mxgraph.aws4.resourceIcon;resIcon=mxgraph.aws4.elastic_beanstalk;" vertex="1" parent="1">
          <mxGeometry x="657" y="312" width="78" height="78" as="geometry" />
        </mxCell>
        <mxCell id="eYl8WgBj91hx6LcociTk-25" value="AWS Cloud" style="points=[[0,0],[0.25,0],[0.5,0],[0.75,0],[1,0],[1,0.25],[1,0.5],[1,0.75],[1,1],[0.75,1],[0.5,1],[0.25,1],[0,1],[0,0.75],[0,0.5],[0,0.25]];outlineConnect=0;gradientColor=none;html=1;whiteSpace=wrap;fontSize=12;fontStyle=0;container=1;pointerEvents=0;collapsible=0;recursiveResize=0;shape=mxgraph.aws4.group;grIcon=mxgraph.aws4.group_aws_cloud;strokeColor=#232F3E;fillColor=none;verticalAlign=top;align=left;spacingLeft=30;fontColor=#232F3E;dashed=0;" vertex="1" parent="1">
          <mxGeometry x="309.5" y="79" width="503" height="417" as="geometry" />
        </mxCell>
        <mxCell id="eYl8WgBj91hx6LcociTk-36" style="edgeStyle=orthogonalEdgeStyle;rounded=0;orthogonalLoop=1;jettySize=auto;html=1;" edge="1" parent="1">
          <mxGeometry relative="1" as="geometry">
            <mxPoint x="561" y="252.42105263157896" as="targetPoint" />
            <mxPoint x="561" y="222" as="sourcePoint" />
          </mxGeometry>
        </mxCell>
        <mxCell id="eYl8WgBj91hx6LcociTk-26" value="&lt;b&gt;&lt;font style=&quot;font-size: 14px;&quot;&gt;CodePipeline&lt;/font&gt;&lt;/b&gt;" style="sketch=0;points=[[0,0,0],[0.25,0,0],[0.5,0,0],[0.75,0,0],[1,0,0],[0,1,0],[0.25,1,0],[0.5,1,0],[0.75,1,0],[1,1,0],[0,0.25,0],[0,0.5,0],[0,0.75,0],[1,0.25,0],[1,0.5,0],[1,0.75,0]];outlineConnect=0;fontColor=#232F3E;fillColor=#3333FF;strokeColor=#ffffff;dashed=0;verticalLabelPosition=bottom;verticalAlign=top;align=center;html=1;fontSize=12;fontStyle=0;aspect=fixed;shape=mxgraph.aws4.resourceIcon;resIcon=mxgraph.aws4.codepipeline;" vertex="1" parent="1">
          <mxGeometry x="522" y="119" width="78" height="78" as="geometry" />
        </mxCell>
        <mxCell id="eYl8WgBj91hx6LcociTk-39" style="edgeStyle=orthogonalEdgeStyle;rounded=0;orthogonalLoop=1;jettySize=auto;html=1;" edge="1" parent="1">
          <mxGeometry relative="1" as="geometry">
            <mxPoint x="434.0000000000002" y="297" as="targetPoint" />
            <mxPoint x="434" y="260" as="sourcePoint" />
          </mxGeometry>
        </mxCell>
        <mxCell id="eYl8WgBj91hx6LcociTk-28" value="&lt;b&gt;&lt;font style=&quot;font-size: 14px;&quot;&gt;CodeBuild&lt;/font&gt;&lt;/b&gt;" style="sketch=0;points=[[0,0,0],[0.25,0,0],[0.5,0,0],[0.75,0,0],[1,0,0],[0,1,0],[0.25,1,0],[0.5,1,0],[0.75,1,0],[1,1,0],[0,0.25,0],[0,0.5,0],[0,0.75,0],[1,0.25,0],[1,0.5,0],[1,0.75,0]];outlineConnect=0;fontColor=#232F3E;fillColor=#3333FF;strokeColor=#ffffff;dashed=0;verticalLabelPosition=bottom;verticalAlign=top;align=center;html=1;fontSize=12;fontStyle=0;aspect=fixed;shape=mxgraph.aws4.resourceIcon;resIcon=mxgraph.aws4.codebuild;" vertex="1" parent="1">
          <mxGeometry x="395" y="312" width="78" height="78" as="geometry" />
        </mxCell>
        <mxCell id="eYl8WgBj91hx6LcociTk-33" value="" style="edgeStyle=orthogonalEdgeStyle;orthogonalLoop=1;jettySize=auto;html=1;rounded=0;endArrow=none;endFill=0;startArrow=classic;startFill=1;" edge="1" parent="1">
          <mxGeometry width="80" relative="1" as="geometry">
            <mxPoint x="251" y="304" as="sourcePoint" />
            <mxPoint x="694" y="259" as="targetPoint" />
            <Array as="points">
              <mxPoint x="251" y="259" />
            </Array>
          </mxGeometry>
        </mxCell>
        <mxCell id="eYl8WgBj91hx6LcociTk-42" value="" style="html=1;verticalLabelPosition=bottom;align=center;labelBackgroundColor=#ffffff;verticalAlign=top;strokeWidth=2;strokeColor=#0080F0;shadow=0;dashed=0;shape=mxgraph.ios7.icons.window;" vertex="1" parent="1">
          <mxGeometry x="906" y="173" width="99" height="60" as="geometry" />
        </mxCell>
      </root>
    </mxGraphModel>
  </diagram>
</mxfile>
